<mxfile host="9262456c-b5a0-4d95-a18d-4a8213bbce26" modified="2020-09-15T08:30:26.698Z" agent="5.0 (Windows NT 10.0; Win64; x64) AppleWebKit/537.36 (KHTML, like Gecko) Code/1.49.0 Chrome/83.0.4103.122 Electron/9.2.1 Safari/537.36" etag="hHDwIm_Mqnf76zOvADHJ" version="13.1.3">
    <diagram id="6hGFLwfOUW9BJ-s0fimq" name="Page-1">
        <mxGraphModel dx="1166" dy="1131" grid="1" gridSize="10" guides="1" tooltips="1" connect="1" arrows="1" fold="1" page="1" pageScale="1" pageWidth="1200" pageHeight="800" math="0" shadow="0">
            <root>
                <mxCell id="0"/>
                <mxCell id="1" parent="0"/>
                <mxCell id="4" value="&lt;span style=&quot;font-size: 20px&quot;&gt;a&lt;/span&gt;" style="rounded=0;whiteSpace=wrap;html=1;fontFamily=微軟正黑體;fontSize=24;fontStyle=1" parent="1" vertex="1">
                    <mxGeometry x="46" y="150" width="30" height="70" as="geometry"/>
                </mxCell>
                <mxCell id="5" value="&lt;span style=&quot;font-size: 20px&quot;&gt;l&lt;br&gt;&lt;/span&gt;" style="rounded=0;whiteSpace=wrap;html=1;fontFamily=微軟正黑體;fontSize=24;fontStyle=1" parent="1" vertex="1">
                    <mxGeometry x="86" y="150" width="30" height="70" as="geometry"/>
                </mxCell>
                <mxCell id="6" value="&lt;span style=&quot;font-size: 20px&quot;&gt;e&lt;/span&gt;" style="rounded=0;whiteSpace=wrap;html=1;fontFamily=微軟正黑體;fontSize=24;fontStyle=1" parent="1" vertex="1">
                    <mxGeometry x="126" y="150" width="30" height="70" as="geometry"/>
                </mxCell>
                <mxCell id="7" value="&lt;span style=&quot;font-size: 20px&quot;&gt;r&lt;/span&gt;" style="rounded=0;whiteSpace=wrap;html=1;fontFamily=微軟正黑體;fontSize=24;fontStyle=1" parent="1" vertex="1">
                    <mxGeometry x="166" y="150" width="30" height="70" as="geometry"/>
                </mxCell>
                <mxCell id="13" value="&lt;span style=&quot;font-size: 20px&quot;&gt;t&lt;/span&gt;" style="rounded=0;whiteSpace=wrap;html=1;fontFamily=微軟正黑體;fontSize=24;fontStyle=1" parent="1" vertex="1">
                    <mxGeometry x="206" y="150" width="30" height="70" as="geometry"/>
                </mxCell>
                <mxCell id="14" value="&lt;span style=&quot;font-size: 20px&quot;&gt;(&lt;/span&gt;" style="rounded=0;whiteSpace=wrap;html=1;fontFamily=微軟正黑體;fontSize=24;fontStyle=1" parent="1" vertex="1">
                    <mxGeometry x="246" y="150" width="30" height="70" as="geometry"/>
                </mxCell>
                <mxCell id="15" value="&lt;span style=&quot;font-size: 20px&quot;&gt;'&lt;/span&gt;" style="rounded=0;whiteSpace=wrap;html=1;fontFamily=微軟正黑體;fontSize=24;fontStyle=1" parent="1" vertex="1">
                    <mxGeometry x="286" y="150" width="30" height="70" as="geometry"/>
                </mxCell>
                <mxCell id="16" value="&lt;span style=&quot;font-size: 20px&quot;&gt;H&lt;/span&gt;" style="rounded=0;whiteSpace=wrap;html=1;fontFamily=微軟正黑體;fontSize=24;fontStyle=1" parent="1" vertex="1">
                    <mxGeometry x="326" y="150" width="30" height="70" as="geometry"/>
                </mxCell>
                <mxCell id="17" value="&lt;span style=&quot;font-size: 20px&quot;&gt;e&lt;/span&gt;" style="rounded=0;whiteSpace=wrap;html=1;fontFamily=微軟正黑體;fontSize=24;fontStyle=1" parent="1" vertex="1">
                    <mxGeometry x="366" y="150" width="30" height="70" as="geometry"/>
                </mxCell>
                <mxCell id="18" value="&lt;span style=&quot;font-size: 20px&quot;&gt;l&lt;/span&gt;" style="rounded=0;whiteSpace=wrap;html=1;fontFamily=微軟正黑體;fontSize=24;fontStyle=1" parent="1" vertex="1">
                    <mxGeometry x="406" y="150" width="30" height="70" as="geometry"/>
                </mxCell>
                <mxCell id="19" value="&lt;span style=&quot;font-size: 20px&quot;&gt;l&lt;/span&gt;" style="rounded=0;whiteSpace=wrap;html=1;fontFamily=微軟正黑體;fontSize=24;fontStyle=1" parent="1" vertex="1">
                    <mxGeometry x="446" y="150" width="30" height="70" as="geometry"/>
                </mxCell>
                <mxCell id="20" value="&lt;span style=&quot;font-size: 20px&quot;&gt;o&lt;/span&gt;" style="rounded=0;whiteSpace=wrap;html=1;fontFamily=微軟正黑體;fontSize=24;fontStyle=1" parent="1" vertex="1">
                    <mxGeometry x="486" y="150" width="30" height="70" as="geometry"/>
                </mxCell>
                <mxCell id="21" value="&lt;span style=&quot;font-size: 20px&quot;&gt;,&lt;/span&gt;" style="rounded=0;whiteSpace=wrap;html=1;fontFamily=微軟正黑體;fontSize=24;fontStyle=1" parent="1" vertex="1">
                    <mxGeometry x="526" y="150" width="30" height="70" as="geometry"/>
                </mxCell>
                <mxCell id="22" value="" style="rounded=0;whiteSpace=wrap;html=1;fontFamily=微軟正黑體;fontSize=24;fontStyle=1" parent="1" vertex="1">
                    <mxGeometry x="566" y="150" width="30" height="70" as="geometry"/>
                </mxCell>
                <mxCell id="23" value="&lt;span style=&quot;font-size: 20px&quot;&gt;J&lt;/span&gt;" style="rounded=0;whiteSpace=wrap;html=1;fontFamily=微軟正黑體;fontSize=24;fontStyle=1" parent="1" vertex="1">
                    <mxGeometry x="606" y="150" width="30" height="70" as="geometry"/>
                </mxCell>
                <mxCell id="24" value="&lt;span style=&quot;font-size: 20px&quot;&gt;a&lt;/span&gt;" style="rounded=0;whiteSpace=wrap;html=1;fontFamily=微軟正黑體;fontSize=24;fontStyle=1" parent="1" vertex="1">
                    <mxGeometry x="646" y="150" width="30" height="70" as="geometry"/>
                </mxCell>
                <mxCell id="25" value="&lt;span style=&quot;font-size: 20px&quot;&gt;v&lt;/span&gt;" style="rounded=0;whiteSpace=wrap;html=1;fontFamily=微軟正黑體;fontSize=24;fontStyle=1" parent="1" vertex="1">
                    <mxGeometry x="686" y="150" width="30" height="70" as="geometry"/>
                </mxCell>
                <mxCell id="26" value="&lt;span style=&quot;font-size: 20px&quot;&gt;a&lt;/span&gt;" style="rounded=0;whiteSpace=wrap;html=1;fontFamily=微軟正黑體;fontSize=24;fontStyle=1" parent="1" vertex="1">
                    <mxGeometry x="726" y="150" width="30" height="70" as="geometry"/>
                </mxCell>
                <mxCell id="27" value="&lt;span style=&quot;font-size: 20px&quot;&gt;S&lt;/span&gt;" style="rounded=0;whiteSpace=wrap;html=1;fontFamily=微軟正黑體;fontSize=24;fontStyle=1" parent="1" vertex="1">
                    <mxGeometry x="766" y="150" width="30" height="70" as="geometry"/>
                </mxCell>
                <mxCell id="28" value="&lt;span style=&quot;font-size: 20px&quot;&gt;c&lt;/span&gt;" style="rounded=0;whiteSpace=wrap;html=1;fontFamily=微軟正黑體;fontSize=24;fontStyle=1" parent="1" vertex="1">
                    <mxGeometry x="806" y="150" width="30" height="70" as="geometry"/>
                </mxCell>
                <mxCell id="29" value="&lt;span style=&quot;font-size: 20px&quot;&gt;r&lt;/span&gt;" style="rounded=0;whiteSpace=wrap;html=1;fontFamily=微軟正黑體;fontSize=24;fontStyle=1" parent="1" vertex="1">
                    <mxGeometry x="846" y="150" width="30" height="70" as="geometry"/>
                </mxCell>
                <mxCell id="30" value="&lt;span style=&quot;font-size: 20px&quot;&gt;i&lt;/span&gt;" style="rounded=0;whiteSpace=wrap;html=1;fontFamily=微軟正黑體;fontSize=24;fontStyle=1" parent="1" vertex="1">
                    <mxGeometry x="886" y="150" width="30" height="70" as="geometry"/>
                </mxCell>
                <mxCell id="31" value="&lt;span style=&quot;font-size: 20px&quot;&gt;p&lt;/span&gt;" style="rounded=0;whiteSpace=wrap;html=1;fontFamily=微軟正黑體;fontSize=24;fontStyle=1" parent="1" vertex="1">
                    <mxGeometry x="926" y="150" width="30" height="70" as="geometry"/>
                </mxCell>
                <mxCell id="32" value="&lt;span style=&quot;font-size: 20px&quot;&gt;t&lt;/span&gt;" style="rounded=0;whiteSpace=wrap;html=1;fontFamily=微軟正黑體;fontSize=24;fontStyle=1" parent="1" vertex="1">
                    <mxGeometry x="966" y="150" width="30" height="70" as="geometry"/>
                </mxCell>
                <mxCell id="33" value="!" style="rounded=0;whiteSpace=wrap;html=1;fontFamily=微軟正黑體;fontSize=24;fontStyle=1" parent="1" vertex="1">
                    <mxGeometry x="1006" y="150" width="30" height="70" as="geometry"/>
                </mxCell>
                <mxCell id="34" value="&lt;span style=&quot;font-size: 20px&quot;&gt;'&lt;/span&gt;" style="rounded=0;whiteSpace=wrap;html=1;fontFamily=微軟正黑體;fontSize=24;fontStyle=1" parent="1" vertex="1">
                    <mxGeometry x="1046" y="150" width="30" height="70" as="geometry"/>
                </mxCell>
                <mxCell id="35" value="&lt;span style=&quot;font-size: 20px&quot;&gt;)&lt;/span&gt;" style="rounded=0;whiteSpace=wrap;html=1;fontFamily=微軟正黑體;fontSize=24;fontStyle=1" parent="1" vertex="1">
                    <mxGeometry x="1086" y="150" width="30" height="70" as="geometry"/>
                </mxCell>
                <mxCell id="36" value="&lt;span style=&quot;font-size: 20px&quot;&gt;;&lt;/span&gt;" style="rounded=0;whiteSpace=wrap;html=1;fontFamily=微軟正黑體;fontSize=24;fontStyle=1" parent="1" vertex="1">
                    <mxGeometry x="1126" y="150" width="30" height="70" as="geometry"/>
                </mxCell>
                <mxCell id="41" value="&lt;span style=&quot;font-size: 20px&quot;&gt;alert&lt;/span&gt;" style="rounded=0;whiteSpace=wrap;html=1;fontFamily=微軟正黑體;fontSize=24;fontStyle=1" parent="1" vertex="1">
                    <mxGeometry x="46" y="421" width="185" height="70" as="geometry"/>
                </mxCell>
                <mxCell id="46" value="&lt;span style=&quot;font-size: 20px&quot;&gt;(&lt;/span&gt;" style="rounded=0;whiteSpace=wrap;html=1;fontFamily=微軟正黑體;fontSize=24;fontStyle=1" parent="1" vertex="1">
                    <mxGeometry x="246" y="421" width="30" height="70" as="geometry"/>
                </mxCell>
                <mxCell id="47" value="&lt;span style=&quot;font-size: 20px&quot;&gt;'&lt;/span&gt;" style="rounded=0;whiteSpace=wrap;html=1;fontFamily=微軟正黑體;fontSize=24;fontStyle=1" parent="1" vertex="1">
                    <mxGeometry x="286" y="421" width="30" height="70" as="geometry"/>
                </mxCell>
                <mxCell id="65" value="Hello, JavaScript!" style="rounded=0;whiteSpace=wrap;html=1;fontFamily=微軟正黑體;fontSize=24;fontStyle=1" parent="1" vertex="1">
                    <mxGeometry x="326" y="421" width="710" height="70" as="geometry"/>
                </mxCell>
                <mxCell id="66" value="&lt;span style=&quot;font-size: 20px&quot;&gt;'&lt;/span&gt;" style="rounded=0;whiteSpace=wrap;html=1;fontFamily=微軟正黑體;fontSize=24;fontStyle=1" parent="1" vertex="1">
                    <mxGeometry x="1046" y="421" width="30" height="70" as="geometry"/>
                </mxCell>
                <mxCell id="67" value="&lt;span style=&quot;font-size: 20px&quot;&gt;)&lt;/span&gt;" style="rounded=0;whiteSpace=wrap;html=1;fontFamily=微軟正黑體;fontSize=24;fontStyle=1" parent="1" vertex="1">
                    <mxGeometry x="1086" y="421" width="30" height="70" as="geometry"/>
                </mxCell>
                <mxCell id="68" value="&lt;span style=&quot;font-size: 20px&quot;&gt;;&lt;/span&gt;" style="rounded=0;whiteSpace=wrap;html=1;fontFamily=微軟正黑體;fontSize=24;fontStyle=1" parent="1" vertex="1">
                    <mxGeometry x="1126" y="421" width="30" height="70" as="geometry"/>
                </mxCell>
                <mxCell id="71" value="詞法分析&lt;br&gt;Lexical Analyzer" style="rounded=0;whiteSpace=wrap;html=1;fontFamily=微軟正黑體;fontSize=24;fontStyle=1" parent="1" vertex="1">
                    <mxGeometry x="501" y="290" width="240" height="70" as="geometry"/>
                </mxCell>
                <mxCell id="78" value="type: identifier&lt;br&gt;value: alert" style="rounded=0;whiteSpace=wrap;html=1;fontFamily=微軟正黑體;fontSize=24;fontStyle=1" parent="1" vertex="1">
                    <mxGeometry x="43" y="520" width="188" height="70" as="geometry"/>
                </mxCell>
                <mxCell id="80" style="edgeStyle=orthogonalEdgeStyle;rounded=0;orthogonalLoop=1;jettySize=auto;html=1;strokeWidth=4;" parent="1" edge="1">
                    <mxGeometry relative="1" as="geometry">
                        <mxPoint x="620" y="412" as="targetPoint"/>
                        <mxPoint x="620" y="370" as="sourcePoint"/>
                    </mxGeometry>
                </mxCell>
                <mxCell id="81" value="type: string&lt;br&gt;value: 'Hello, JavaScript!'" style="rounded=0;whiteSpace=wrap;html=1;fontFamily=微軟正黑體;fontSize=24;fontStyle=1" parent="1" vertex="1">
                    <mxGeometry x="287" y="520" width="789" height="70" as="geometry"/>
                </mxCell>
                <mxCell id="82" style="edgeStyle=orthogonalEdgeStyle;rounded=0;orthogonalLoop=1;jettySize=auto;html=1;strokeWidth=4;" parent="1" edge="1">
                    <mxGeometry relative="1" as="geometry">
                        <mxPoint x="620.66" y="281" as="targetPoint"/>
                        <mxPoint x="620.66" y="239.0000000000001" as="sourcePoint"/>
                    </mxGeometry>
                </mxCell>
                <mxCell id="83" value="標記化&lt;br&gt;tokenization" style="rounded=0;whiteSpace=wrap;html=1;fontFamily=微軟正黑體;fontSize=24;fontStyle=1" parent="1" vertex="1">
                    <mxGeometry x="501" y="10" width="240" height="70" as="geometry"/>
                </mxCell>
                <mxCell id="84" style="edgeStyle=orthogonalEdgeStyle;rounded=0;orthogonalLoop=1;jettySize=auto;html=1;strokeWidth=4;" parent="1" edge="1">
                    <mxGeometry relative="1" as="geometry">
                        <mxPoint x="620" y="135.00000000000023" as="targetPoint"/>
                        <mxPoint x="620" y="93" as="sourcePoint"/>
                    </mxGeometry>
                </mxCell>
                <mxCell id="86" value="" style="rounded=0;whiteSpace=wrap;html=1;fontFamily=微軟正黑體;fontSize=24;fontStyle=1" vertex="1" parent="1">
                    <mxGeometry x="246" y="520" width="30" height="70" as="geometry"/>
                </mxCell>
                <mxCell id="87" value="" style="rounded=0;whiteSpace=wrap;html=1;fontFamily=微軟正黑體;fontSize=24;fontStyle=1" vertex="1" parent="1">
                    <mxGeometry x="1086" y="520" width="30" height="70" as="geometry"/>
                </mxCell>
                <mxCell id="88" value="" style="rounded=0;whiteSpace=wrap;html=1;fontFamily=微軟正黑體;fontSize=24;fontStyle=1" vertex="1" parent="1">
                    <mxGeometry x="1126" y="520" width="30" height="70" as="geometry"/>
                </mxCell>
                <mxCell id="90" value="&lt;span style=&quot;font-size: 24px ; font-weight: 700 ; text-align: center&quot;&gt;type:&amp;nbsp;&lt;/span&gt;&lt;span style=&quot;font-size: 24px&quot;&gt;&lt;b&gt;punctuator&lt;/b&gt;&lt;/span&gt;&lt;br style=&quot;font-size: 24px ; font-weight: 700 ; text-align: center&quot;&gt;&lt;span style=&quot;font-size: 24px ; font-weight: 700 ; text-align: center&quot;&gt;value: (&lt;/span&gt;" style="text;whiteSpace=wrap;html=1;" vertex="1" parent="1">
                    <mxGeometry x="196" y="680" width="179" height="80" as="geometry"/>
                </mxCell>
                <mxCell id="91" value="&lt;span style=&quot;font-size: 24px ; font-weight: 700 ; text-align: center&quot;&gt;type:&amp;nbsp;&lt;/span&gt;&lt;span style=&quot;font-size: 24px&quot;&gt;&lt;b&gt;punctuator&lt;/b&gt;&lt;/span&gt;&lt;br style=&quot;font-size: 24px ; font-weight: 700 ; text-align: center&quot;&gt;&lt;span style=&quot;font-size: 24px ; font-weight: 700 ; text-align: center&quot;&gt;value: )&lt;/span&gt;" style="text;whiteSpace=wrap;html=1;" vertex="1" parent="1">
                    <mxGeometry x="771.5" y="680" width="179" height="80" as="geometry"/>
                </mxCell>
                <mxCell id="92" value="&lt;span style=&quot;font-size: 24px ; font-weight: 700 ; text-align: center&quot;&gt;type:&amp;nbsp;&lt;/span&gt;&lt;span style=&quot;font-size: 24px&quot;&gt;&lt;b&gt;punctuator&lt;/b&gt;&lt;/span&gt;&lt;br style=&quot;font-size: 24px ; font-weight: 700 ; text-align: center&quot;&gt;&lt;span style=&quot;font-size: 24px ; font-weight: 700 ; text-align: center&quot;&gt;value: ;&lt;/span&gt;" style="text;whiteSpace=wrap;html=1;" vertex="1" parent="1">
                    <mxGeometry x="996" y="680" width="179" height="80" as="geometry"/>
                </mxCell>
                <mxCell id="93" style="edgeStyle=orthogonalEdgeStyle;rounded=0;orthogonalLoop=1;jettySize=auto;html=1;strokeWidth=4;" edge="1" parent="1">
                    <mxGeometry relative="1" as="geometry">
                        <mxPoint x="260" y="670" as="targetPoint"/>
                        <mxPoint x="260.2899999999998" y="560.0000000000002" as="sourcePoint"/>
                        <Array as="points">
                            <mxPoint x="260" y="590"/>
                            <mxPoint x="260" y="590"/>
                        </Array>
                    </mxGeometry>
                </mxCell>
                <mxCell id="94" style="edgeStyle=orthogonalEdgeStyle;rounded=0;orthogonalLoop=1;jettySize=auto;html=1;strokeWidth=4;" edge="1" parent="1">
                    <mxGeometry relative="1" as="geometry">
                        <mxPoint x="1140" y="670" as="targetPoint"/>
                        <mxPoint x="1140.5799999999997" y="550.0000000000002" as="sourcePoint"/>
                        <Array as="points">
                            <mxPoint x="1140.29" y="580"/>
                            <mxPoint x="1140.29" y="580"/>
                        </Array>
                    </mxGeometry>
                </mxCell>
                <mxCell id="95" style="edgeStyle=orthogonalEdgeStyle;rounded=0;orthogonalLoop=1;jettySize=auto;html=1;strokeWidth=4;" edge="1" parent="1">
                    <mxGeometry relative="1" as="geometry">
                        <mxPoint x="840" y="670" as="targetPoint"/>
                        <mxPoint x="1100.5799999999997" y="550.0000000000002" as="sourcePoint"/>
                        <Array as="points">
                            <mxPoint x="1101" y="605"/>
                            <mxPoint x="840" y="605"/>
                            <mxPoint x="840" y="660"/>
                        </Array>
                    </mxGeometry>
                </mxCell>
            </root>
        </mxGraphModel>
    </diagram>
</mxfile>